<?xml version="1.0" standalone="no"?>
<!DOCTYPE svg PUBLIC "-//W3C//DTD SVG 20010904//EN"
 "http://www.w3.org/TR/2001/REC-SVG-20010904/DTD/svg10.dtd">
<svg version="1.0" xmlns="http://www.w3.org/2000/svg"
 width="256.000000pt" height="256.000000pt" viewBox="0 0 256.000000 256.000000"
 preserveAspectRatio="xMidYMid meet">
<metadata>
Created by potrace 1.14, written by Peter Selinger 2001-2017
</metadata>
<g transform="translate(0.000000,256.000000) scale(0.100000,-0.100000)"
fill="#000000" stroke="none">
<path d="M1242 2153 c-16 -26 -110 -178 -207 -338 -98 -159 -222 -363 -276
-451 -55 -89 -99 -166 -99 -173 0 -8 47 -11 158 -11 l157 0 115 187 c63 104
130 214 149 245 19 32 37 58 40 58 6 -1 512 -827 519 -847 4 -15 53 -14 -797
-15 -546 -1 -575 -2 -590 -20 -21 -23 -161 -252 -157 -255 2 -2 1660 -5 2034
-3 19 0 14 17 -22 73 -19 28 -96 153 -172 277 -75 124 -180 295 -232 380 -53
85 -144 234 -203 330 -58 96 -166 272 -238 390 -72 118 -135 216 -140 218 -5
1 -22 -19 -39 -45z"/>
<path d="M279 1065 c-51 -28 -57 -97 -11 -138 26 -24 95 -20 100 6 3 13 -4 17
-31 17 -45 0 -64 22 -51 58 8 22 17 28 49 32 78 10 85 5 85 -61 0 -45 4 -61
15 -66 23 -8 27 1 29 64 1 53 3 58 24 61 15 2 22 9 20 20 -2 13 -16 18 -61 20
-33 2 -65 -2 -72 -8 -9 -8 -15 -8 -20 0 -9 14 -45 12 -76 -5z"/>
<path d="M557 1073 c-9 -14 -57 -145 -57 -154 0 -15 40 -10 46 6 8 20 54 19
69 -2 7 -9 19 -14 28 -10 15 6 14 15 -12 84 -21 59 -33 79 -49 81 -11 2 -22
-1 -25 -5z m33 -84 c0 -5 -4 -9 -10 -9 -5 0 -10 7 -10 16 0 8 5 12 10 9 6 -3
10 -10 10 -16z"/>
<path d="M676 1065 c-9 -25 -7 -128 3 -144 13 -21 41 -5 41 24 0 21 5 25 30
25 27 0 30 -3 30 -30 0 -24 4 -30 20 -30 20 0 21 5 18 83 -2 65 -6 82 -18 82
-10 0 -16 -12 -18 -32 -3 -29 -7 -33 -32 -33 -25 0 -29 4 -32 32 -3 36 -31 51
-42 23z"/>
<path d="M897 1073 c-2 -4 -12 -34 -21 -65 -9 -31 -21 -60 -26 -63 -6 -3 -10
-22 -10 -41 0 -27 4 -34 20 -34 13 0 20 7 20 20 0 17 7 20 45 20 38 0 45 -3
45 -20 0 -13 7 -20 20 -20 16 0 20 7 20 33 0 18 -4 37 -9 43 -6 5 -11 36 -13
69 l-3 60 -42 3 c-22 2 -43 -1 -46 -5z m43 -77 c0 -43 -12 -67 -25 -47 -8 14
6 91 16 91 5 0 9 -20 9 -44z"/>
<path d="M1077 1073 c-9 -14 -57 -145 -57 -154 0 -15 40 -10 46 6 8 20 54 19
69 -2 7 -9 19 -14 28 -10 15 6 14 15 -12 84 -21 59 -33 79 -49 81 -11 2 -22
-1 -25 -5z m30 -89 c-9 -9 -28 6 -21 18 4 6 10 6 17 -1 6 -6 8 -13 4 -17z"/>
<path d="M1194 1067 c-3 -8 -4 -45 -2 -83 3 -61 5 -69 23 -69 12 0 21 9 25 25
4 15 14 26 27 28 26 4 50 30 55 58 2 18 7 20 26 13 19 -7 22 -15 22 -69 0 -53
2 -60 20 -60 18 0 20 7 20 64 0 59 2 65 23 68 12 2 22 10 22 18 0 19 -109 27
-130 10 -10 -8 -19 -8 -34 -1 -28 16 -91 14 -97 -2z m76 -47 c0 -11 -7 -20
-15 -20 -8 0 -15 9 -15 20 0 11 7 20 15 20 8 0 15 -9 15 -20z"/>
</g>
</svg>
